# xmcd
#
# Track frame offsets: 
#        150
#        28737
#        46424
#        59263
#        86607
#        128576
#        156752
#        174400
#        224730
#        239692
#        259662
#
# Disc length: 3741 seconds
#
# Revision: 0
# Processed by: cddbd v1.5.2PL0 Copyright (c) Steve Scherf et al.
# Submitted via: ExactAudioCopy v0.99pb4
#
DISCID=990e9b0b
DTITLE=Westernhagen - Wenn das Licht auf Dich fällt [CD2)
DYEAR=2007
DGENRE=Rock
TTITLE0=Liebst Du mich
TTITLE1=Keine Zeit
TTITLE2=You Got To Move
TTITLE3=Sexy
TTITLE4=Wieder hier
TTITLE5=Weil ich Dich liebe
TTITLE6=Johnny W.
TTITLE7=Mit 18 (Blues Version)
TTITLE8=Alles ist möglich
TTITLE9=Mit dem Rücken zur Wand
TTITLE10=Freiheit
EXTD=
EXTT0=
EXTT1=
EXTT2=
EXTT3=
EXTT4=
EXTT5=
EXTT6=
EXTT7=
EXTT8=
EXTT9=
EXTT10=
PLAYORDER=
